<svg width="120" height="120" viewBox="0 0 120 120" fill="none" xmlns="http://www.w3.org/2000/svg">
<rect width="120" height="120" rx="12" fill="#6170C2"/>
<path d="M91 62.7438C90.0233 78.8821 80.6524 95 59.9962 95C39.34 95 29.9842 78.8821 29 61.2562C29 40.7295 39.3476 29 60.0038 29C80.66 29 91 42.217 91 62.7438Z" fill="#FEFEFE"/>
<circle cx="60" cy="78" r="3" fill="#EE86B2"/>
<path d="M60 71L63 75.5294V78H57V75.5294L60 71Z" fill="#EE86B2"/>
<path d="M51.1154 40.2885L49.5 41.5L48.9912 41.818C46.7227 43.2358 44.9645 45.3388 43.971 47.8225C43.6578 48.6055 43.424 49.418 43.2731 50.2478L42.6567 53.6381C42.5524 54.2115 42.5 54.7932 42.5 55.376C42.5 57.7133 41.6573 59.9723 40.1265 61.7386L36.956 65.3969C36.32 66.1308 35.6185 66.8052 34.8601 67.4119L32.0985 69.6212C31.3676 70.2059 30.5868 70.7254 29.765 71.1736L25.5 73.5L21.5 75C19.7084 75.8958 17.5447 75.5447 16.1283 74.1283L15.6423 73.6423C14.5908 72.5908 14 71.1646 14 69.6774V65.5435C14 64.517 14.1014 63.493 14.3027 62.4865L16.0798 53.6011C16.3587 52.2066 16.8223 50.8555 17.4582 49.5835L20.742 43.0161C21.2459 42.0082 21.8549 41.0563 22.5589 40.1764L28.1395 33.2006C29.0423 32.0721 30.0939 31.0711 31.2655 30.2249L36.6794 26.3148C37.8813 25.4469 39.2429 24.8252 40.686 24.4856L41.048 24.4005C44.7313 23.5338 48.5973 24.6971 51.1907 27.4526L52.1365 28.4575C53.9296 30.3627 54.6728 33.0271 54.1246 35.5854C53.7218 37.4648 52.653 39.1352 51.1154 40.2885Z" fill="#D4BAA3"/>
<path d="M68.8846 40.2885L70.5 41.5L71.0088 41.818C73.2773 43.2358 75.0355 45.3388 76.029 47.8225C76.3422 48.6055 76.576 49.418 76.7269 50.2478L77.3433 53.6381C77.4476 54.2115 77.5 54.7932 77.5 55.376C77.5 57.7133 78.3427 59.9723 79.8735 61.7386L83.044 65.3969C83.68 66.1308 84.3815 66.8052 85.1399 67.4119L87.9015 69.6212C88.6324 70.2059 89.4132 70.7254 90.235 71.1736L94.5 73.5L98.5 75C100.292 75.8958 102.455 75.5447 103.872 74.1283L104.358 73.6423C105.409 72.5908 106 71.1646 106 69.6774V65.5435C106 64.517 105.899 63.493 105.697 62.4865L103.92 53.6011C103.641 52.2066 103.178 50.8555 102.542 49.5835L99.258 43.0161C98.7541 42.0082 98.1451 41.0563 97.4411 40.1764L91.8605 33.2006C90.9577 32.0721 89.9061 31.0711 88.7345 30.2249L83.3206 26.3148C82.1187 25.4469 80.7571 24.8252 79.314 24.4856L78.952 24.4005C75.2687 23.5338 71.4027 24.6971 68.8093 27.4526L67.8635 28.4575C66.0704 30.3627 65.3272 33.0271 65.8754 35.5854C66.2782 37.4648 67.347 39.1352 68.8846 40.2885Z" fill="#D4BAA3"/>
<circle cx="60" cy="67" r="4" fill="#14141D"/>
<path d="M44 71.6L45.9954 74.7926C47.2424 76.7879 49.4294 78 51.7824 78V78C54.3672 78 56.7302 76.5396 57.8862 74.2276L60 70" stroke="#14141D" stroke-linecap="round" stroke-linejoin="round"/>
<path d="M76 71.6L74.0046 74.7926C72.7576 76.7879 70.5706 78 68.2176 78V78C65.6328 78 63.2698 76.5396 62.1138 74.2276L60 70" stroke="#14141D" stroke-linecap="round" stroke-linejoin="round"/>
<rect x="26" y="35" width="68" height="10" fill="#7BBBD4"/>
<circle cx="26" cy="40" r="5" fill="#7BBBD4"/>
<circle cx="94" cy="40" r="5" fill="#7BBBD4"/>
<rect x="50" y="52" width="4" height="4" rx="2" fill="#14141D"/>
<rect x="66" y="52" width="4" height="4" rx="2" fill="#14141D"/>
</svg>
